<?xml version="1.0" encoding="UTF-8" standalone="no"?>
<!-- Creator: CorelDRAW 2017 -->

<svg
   xmlns:dc="http://purl.org/dc/elements/1.1/"
   xmlns:cc="http://creativecommons.org/ns#"
   xmlns:rdf="http://www.w3.org/1999/02/22-rdf-syntax-ns#"
   xmlns:svg="http://www.w3.org/2000/svg"
   xmlns="http://www.w3.org/2000/svg"
   xmlns:sodipodi="http://sodipodi.sourceforge.net/DTD/sodipodi-0.dtd"
   xmlns:inkscape="http://www.inkscape.org/namespaces/inkscape"
   xml:space="preserve"
   width="70mm"
   height="25mm"
   version="1.1"
   style="shape-rendering:geometricPrecision; text-rendering:geometricPrecision; image-rendering:optimizeQuality; fill-rule:evenodd; clip-rule:evenodd"
   viewBox="0 0 7000 2500"
   id="svg2"
   inkscape:version="0.91 r13725"
   sodipodi:docname="logo-2.svg"><metadata
     id="metadata47"><rdf:RDF><cc:Work
         rdf:about=""><dc:format>image/svg+xml</dc:format><dc:type
           rdf:resource="http://purl.org/dc/dcmitype/StillImage" /><dc:title></dc:title></cc:Work></rdf:RDF></metadata><sodipodi:namedview
     pagecolor="#ffffff"
     bordercolor="#666666"
     borderopacity="1"
     objecttolerance="10"
     gridtolerance="10"
     guidetolerance="10"
     inkscape:pageopacity="0"
     inkscape:pageshadow="2"
     inkscape:window-width="640"
     inkscape:window-height="480"
     id="namedview45"
     showgrid="false"
     inkscape:zoom="1.4232063"
     inkscape:cx="124.01575"
     inkscape:cy="44.291339"
     inkscape:window-x="0"
     inkscape:window-y="0"
     inkscape:window-maximized="0"
     inkscape:current-layer="svg2" /><defs
     id="defs4"><style
       type="text/css"
       id="style6"><![CDATA[
    .fil3 {fill:#323232}
    .fil0 {fill:#FECC00}
    .fil1 {fill:black;fill-rule:nonzero}
    .fil2 {fill:#969696;fill-rule:nonzero}
   ]]></style></defs><g
     id="Capa_x0020_1"><metadata
       id="CorelCorpID_0Corel-Layer" /><polygon
       class="fil0"
       points="699.47,1508.28 5857.82,1508.28 6118.22,1182.91 697.92,1182.91 "
       id="polygon10" /><path
       class="fil1"
       d="M761.62 715.24c0,23.91 -4.27,41.58 -12.82,53.1 -8.54,11.48 -21.94,17.24 -40.23,17.24 -18.3,0 -31.98,-6.14 -41.01,-18.39 -9.03,-12.24 -13.59,-29.82 -13.59,-52.82l0 -107.89c0,-36.88 9.65,-59.88 29,-69.05 7.11,-3.41 15.75,-5.09 25.88,-5.09 34.77,0 52.2,21.95 52.2,65.83l0 34.05 -36.45 0 0 -31.65c0,-12.77 -1.05,-21.89 -3.21,-27.36 -2.16,-5.48 -6.39,-8.22 -12.68,-8.22 -6.29,0 -10.66,2.89 -13.11,8.7 -2.4,5.85 -3.65,14.74 -3.65,26.74l0 115.62c0,13.35 1.2,22.86 3.56,28.57 2.3,5.72 6.57,8.6 12.77,8.6 6.19,0 10.47,-2.93 12.82,-8.74 2.35,-5.81 3.5,-15.41 3.5,-28.81l0 -35.48 37.02 0 0 35.05z"
       id="path12" /><path
       id="1"
       class="fil1"
       d="M827.12 713.94c0,14.55 1.11,24.68 3.32,30.4 2.2,5.71 6.72,8.59 13.58,8.59 6.82,0 11.34,-2.93 13.5,-8.79 2.16,-5.85 3.26,-15.94 3.26,-30.2l0 -115.33c0,-11.72 -1.1,-20.27 -3.31,-25.69 -2.21,-5.38 -6.53,-8.07 -12.97,-8.07 -6.43,0 -10.9,2.69 -13.49,8.07 -2.59,5.42 -3.89,13.92 -3.89,25.54l0 115.48zm71.5 -0.38c0,24.15 -4.32,42.2 -12.97,54.11 -8.64,11.96 -22.42,17.91 -41.43,17.91 -18.97,0 -32.89,-6 -41.78,-17.96 -8.83,-11.95 -13.3,-29.96 -13.3,-54.06l0 -113.27c0,-45.38 18.54,-68.09 55.56,-68.09 19.16,0 32.94,5.76 41.29,17.33 8.4,11.53 12.63,28.43 12.63,50.76l0 113.27z" /><polygon
       id="2"
       class="fil1"
       points="932.8,782.75 932.8,535.18 979.62,535.18 1014.81,716.05 1047.85,535.18 1095,535.18 1095,782.75 1061.39,782.75 1061.39,690.46 1062.78,605.76 1029.41,781.65 999.45,781.65 964.73,605.76 966.13,690.46 966.13,782.75 " /><path
       id="3"
       class="fil1"
       d="M1132.26 782.75l0 -247.57 56.81 0c19.25,0 32.41,5.81 39.47,17.47 7.1,11.72 10.8,29.1 11.18,52.29l0 5.19c0,24.58 -3.5,43.22 -10.46,55.94 -7.01,12.68 -19.98,19.06 -38.9,19.06l-20.4 0 0 97.62 -37.7 0zm37.7 -128.73l12.91 0c7.97,0 13.16,-3.08 15.56,-9.22 2.4,-6.15 3.6,-17.82 3.6,-35.1l0 -4.76c-0.1,-14.64 -1.39,-25.11 -3.89,-31.35 -2.45,-6.29 -7.44,-9.46 -14.98,-9.46l-13.2 0 0 89.89z" /><path
       id="4"
       class="fil1"
       d="M1372.82 719.18c0,22.76 -4.32,39.56 -12.96,50.27 -8.6,10.76 -22.47,16.13 -41.54,16.13 -19.11,0 -32.98,-5.42 -41.68,-16.18 -8.64,-10.8 -13.01,-27.56 -13.01,-50.22l0 -184.15 37.74 0 0 183.43c0,13.06 0.58,20.98 1.83,23.76 1.2,2.84 2.69,5.38 4.42,7.69 1.72,2.3 5.33,3.45 10.75,3.45 5.43,0 9.32,-1.58 11.67,-4.8 2.35,-3.17 3.79,-7.15 4.32,-11.86 0.48,-4.75 0.77,-10.85 0.77,-18.24l0 -183.43 37.69 0 0 184.15z" /><polygon
       id="5"
       class="fil1"
       points="1421.17,782.75 1421.17,567.78 1392.22,567.78 1392.22,535.18 1486.62,535.18 1486.62,567.78 1458.77,567.78 1458.77,782.75 " /><path
       id="6"
       class="fil1"
       d="M1573.86 708.32l-16.61 -124.36 -0.58 0 -15.17 124.36 32.36 0zm-77.69 74.43l35.34 -247.57 49.79 0 37.55 247.57 -35.15 0 -5.9 -44.18 -39.95 0 -5.38 44.18 -36.3 0z" /><polygon
       id="7"
       class="fil1"
       points="1654.72,782.75 1654.72,567.78 1625.77,567.78 1625.77,535.18 1720.17,535.18 1720.17,567.78 1692.32,567.78 1692.32,782.75 " /><polygon
       id="8"
       class="fil1"
       points="1742.39,782.75 1742.39,535.18 1780.09,535.18 1780.09,782.75 " /><path
       id="9"
       class="fil1"
       d="M1853.5 713.94c0,14.55 1.11,24.68 3.32,30.4 2.2,5.71 6.72,8.59 13.58,8.59 6.82,0 11.34,-2.93 13.5,-8.79 2.16,-5.85 3.26,-15.94 3.26,-30.2l0 -115.33c0,-11.72 -1.1,-20.27 -3.31,-25.69 -2.21,-5.38 -6.53,-8.07 -12.97,-8.07 -6.43,0 -10.9,2.69 -13.49,8.07 -2.59,5.42 -3.89,13.92 -3.89,25.54l0 115.48zm71.5 -0.38c0,24.15 -4.32,42.2 -12.97,54.11 -8.64,11.96 -22.42,17.91 -41.43,17.91 -18.97,0 -32.89,-6 -41.78,-17.96 -8.83,-11.95 -13.3,-29.96 -13.3,-54.06l0 -113.27c0,-45.38 18.54,-68.09 55.56,-68.09 19.16,0 32.94,5.76 41.29,17.33 8.4,11.53 12.63,28.43 12.63,50.76l0 113.27z" /><polygon
       id="10"
       class="fil1"
       points="1959.18,782.75 1959.18,535.18 1988.71,535.18 2041.19,683.69 2038.51,616.18 2038.51,535.18 2072.41,535.18 2072.41,782.75 2045.71,782.75 1991.79,629 1993.9,693.97 1993.9,782.75 " /><path
       id="11"
       class="fil1"
       d="M2175.98 708.32l-16.61 -124.36 -0.58 0 -15.17 124.36 32.36 0zm-77.69 74.43l35.34 -247.57 49.79 0 37.55 247.57 -35.15 0 -5.9 -44.18 -39.95 0 -5.38 44.18 -36.3 0z" /><polygon
       id="12"
       class="fil1"
       points="2246.85,782.75 2246.85,535.18 2284.55,535.18 2284.55,750.67 2332.23,750.67 2332.23,782.75 " /><path
       id="13"
       class="fil1"
       d="M2405.5 782.75l0 -247.57 56.81 0c19.25,0 32.41,5.81 39.47,17.47 7.1,11.72 10.8,29.1 11.18,52.29l0 5.19c0,24.58 -3.5,43.22 -10.46,55.94 -7.01,12.68 -19.98,19.06 -38.9,19.06l-20.4 0 0 97.62 -37.7 0zm37.7 -128.73l12.91 0c7.97,0 13.16,-3.08 15.56,-9.22 2.4,-6.15 3.6,-17.82 3.6,-35.1l0 -4.76c-0.1,-14.64 -1.39,-25.11 -3.89,-31.35 -2.45,-6.29 -7.44,-9.46 -14.98,-9.46l-13.2 0 0 89.89z" /><polygon
       id="14"
       class="fil1"
       points="2539.7,782.75 2539.7,535.18 2577.4,535.18 2577.4,782.75 " /><path
       id="15"
       class="fil1"
       d="M2615.95 782.75l0 -247.57 56.81 0c19.25,0 32.41,5.81 39.47,17.47 7.1,11.72 10.8,29.1 11.18,52.29l0 5.19c0,24.58 -3.5,43.22 -10.46,55.94 -7.01,12.68 -19.98,19.06 -38.9,19.06l-20.4 0 0 97.62 -37.7 0zm37.7 -128.73l12.91 0c7.97,0 13.16,-3.08 15.56,-9.22 2.4,-6.15 3.6,-17.82 3.6,-35.1l0 -4.76c-0.1,-14.64 -1.39,-25.11 -3.89,-31.35 -2.45,-6.29 -7.44,-9.46 -14.98,-9.46l-13.2 0 0 89.89z" /><polygon
       id="16"
       class="fil1"
       points="2748.76,782.75 2748.76,535.18 2831.74,535.18 2831.74,567.68 2786.46,567.68 2786.46,639.71 2829.48,639.71 2829.48,671.5 2786.46,671.5 2786.46,750.24 2833.42,750.24 2833.42,782.75 " /><polygon
       id="17"
       class="fil1"
       points="2863.57,782.75 2863.57,535.18 2901.27,535.18 2901.27,750.67 2948.95,750.67 2948.95,782.75 " /><polygon
       id="18"
       class="fil1"
       points="2971.99,782.75 2971.99,535.18 3009.69,535.18 3009.69,782.75 " /><polygon
       id="19"
       class="fil1"
       points="3048.24,782.75 3048.24,535.18 3077.77,535.18 3130.25,683.69 3127.57,616.18 3127.57,535.18 3161.47,535.18 3161.47,782.75 3134.77,782.75 3080.85,629 3082.96,693.97 3082.96,782.75 " /><polygon
       id="20"
       class="fil1"
       points="3198.63,782.75 3198.63,535.18 3281.61,535.18 3281.61,567.68 3236.33,567.68 3236.33,639.71 3279.35,639.71 3279.35,671.5 3236.33,671.5 3236.33,750.24 3283.29,750.24 3283.29,782.75 " /><path
       id="21"
       class="fil1"
       d="M3308.5 713.13l0 -22.09 35.72 0 0 24.87c0,13.78 1.2,23.48 3.55,29.05 2.31,5.62 6.73,8.4 13.21,8.4 6.48,0 10.75,-2.3 12.87,-6.91 2.11,-4.61 3.17,-12.1 3.17,-22.52 0,-10.37 -1.88,-19.45 -5.62,-27.23 -3.75,-7.73 -9.7,-15.79 -17.86,-24.24l-18.3 -18.87c-8.54,-8.89 -15.17,-18.11 -19.92,-27.71 -4.71,-9.56 -7.11,-20.6 -7.11,-33.18 0,-20.46 3.94,-35.63 11.81,-45.57 7.92,-9.94 21.46,-14.93 40.67,-14.93 19.21,0 32.22,5.81 39.04,17.38 6.82,11.57 10.23,28.47 10.23,50.71l0 15.36 -34.77 0 0 -17.76c0,-12.01 -1.05,-20.6 -3.12,-25.79 -2.06,-5.23 -6,-7.83 -11.86,-7.83 -5.86,0 -10.08,1.97 -12.68,5.91 -2.59,3.94 -3.84,9.84 -3.84,17.72 0,7.87 1.3,14.16 3.94,18.87 2.59,4.7 7.35,10.71 14.21,18.01l20.36 22.08c10.23,11.05 17.96,22.28 23.15,33.61 5.23,11.34 7.82,23.72 7.82,37.17 0,23.14 -3.89,40.24 -11.66,51.33 -7.78,11.04 -21.42,16.61 -40.87,16.61 -19.49,0 -33.03,-6.19 -40.67,-18.53 -7.63,-12.34 -11.47,-30.3 -11.47,-53.92z" /><path
       class="fil2"
       d="M2938.97 970.22l0 -111.1 -474.85 111.1 0 -84.48 -180.73 0 0 126.71 0 821.2 180.73 0 0 -677.85 294.12 -68.86 0 95.97 180.73 0 0 -27.11 293.87 -68.86 0 746.71 180.72 0 0 -974.53 -474.59 111.1 0 0zm-180.73 538.06l0 325.37 180.73 0 0 -325.37 -180.73 0z"
       id="path35" /><path
       class="fil2"
       d="M2124.51 1833.65l0 -739.79 -150.52 -207.61 -505.31 0 0 739.8 149.75 207.6 506.08 0 0 0zm-413.67 -180.72l-61.43 -85.25 0 -500.45 232.43 0 61.95 85.25 0 500.45 -232.95 0z"
       id="path37" /><polygon
       class="fil2"
       points="653.97,1967.84 1309.55,1833.71 1309.55,1579.72 1128.82,1579.72 1128.82,1686.26 834.7,1746.16 834.7,1067.23 1128.82,1067.23 1128.82,1182.91 1309.55,1182.91 1309.55,886.51 653.97,886.51 "
       id="polygon39" /><path
       class="fil3"
       d="M3576.39 532.17l547.07 650.74 -547.07 650.74 378.05 0 273.53 -325.37 756.1 0 273.54 -325.37 -547.07 -650.74 -1134.15 0zm651.58 325.37l273.54 325.37 378.05 0 -273.53 -325.37 -378.06 0z"
       id="path41" /><polygon
       class="fil3"
       points="4938.33,532.17 5211.87,857.54 5589.91,857.54 5863.45,1182.91 5589.92,1508.28 5211.87,1508.28 4938.33,1833.65 6072.48,1833.65 6346.02,1508.28 5967.97,1508.28 6241.5,1182.91 5967.96,857.54 6346.02,857.54 6072.48,532.17 "
       id="polygon43" /></g></svg>